<svg width="27" height="25" viewBox="0 0 27 25" fill="none" xmlns="http://www.w3.org/2000/svg">
<path d="M5.57223 0H0.835835C0.379925 0 0 0.372238 0 0.818923V24.0218C0 24.4684 0.379925 24.8407 0.835835 24.8407H5.57223C6.02814 24.8407 6.40807 24.4684 6.40807 24.0218V0.818923C6.40807 0.372238 6.05347 0 5.57223 0Z" fill="white"/>
<path d="M26.1643 0H21.4279C20.972 0 20.592 0.372238 20.592 0.818923V24.0218C20.592 24.4684 20.972 24.8407 21.4279 24.8407H26.1643C26.6202 24.8407 27.0001 24.4684 27.0001 24.0218V0.818923C27.0001 0.372238 26.6455 0 26.1643 0Z" fill="white"/>
<path d="M13.3228 11.589L8.05449 2.28307C7.95317 2.10936 7.67456 2.18381 7.67456 2.38233V10.9934C7.67456 11.6883 7.85186 12.3831 8.20646 13.0035L10.3594 16.8252L11.0939 18.1156C11.3978 18.6367 11.9297 18.9593 12.5376 18.9593H17.1727C17.3247 18.9593 17.426 18.8104 17.35 18.6615L16.3115 16.8252L13.3228 11.589Z" fill="white"/>
<path d="M14.3864 11.589L16.742 15.7332C16.8433 15.9069 17.1219 15.9069 17.2232 15.7332L19.3508 11.9612C19.3761 11.9116 19.3761 11.8868 19.3761 11.8371V2.50638C19.3761 2.2334 18.9962 2.13414 18.8695 2.3823L14.1078 10.7949C14.0572 10.8693 14.0572 10.9686 14.1078 11.0678L14.3864 11.589Z" fill="white"/>
</svg>
