<svg width="117" height="22" viewBox="0 0 117 22" fill="none" xmlns="http://www.w3.org/2000/svg">
<g clip-path="url(#clip0)">
<path d="M25.7563 19.9903C24.3567 18.6647 23.6465 16.7191 23.6047 14.1749V13.2342C23.6883 10.8183 24.4194 8.91546 25.819 7.54714C27.2186 6.17882 29.0986 5.49466 31.4591 5.49466C33.172 5.49466 34.6133 5.83674 35.804 6.54228C36.9947 7.24782 37.872 8.20992 38.4569 9.44996C39.0418 10.69 39.3343 12.0797 39.3343 13.6618V14.4315C39.3343 14.6453 39.2507 14.8377 39.1045 14.9874C38.9582 15.137 38.7702 15.2225 38.5614 15.2225H29.0986V15.3936C29.1195 16.3129 29.3284 17.0398 29.7253 17.6171C30.1221 18.173 30.6861 18.4509 31.4173 18.4509C31.8977 18.4509 32.2737 18.344 32.5662 18.1516C32.8586 17.9592 33.1302 17.7026 33.3808 17.4033C33.5689 17.1895 33.6942 17.0826 33.8195 17.0185C33.924 16.9757 34.112 16.9329 34.3417 16.9329H38.248C38.436 16.9329 38.5822 16.9971 38.7076 17.104C38.8329 17.2109 38.8956 17.3605 38.8956 17.5102C38.8956 18.0447 38.6031 18.6647 38.0182 19.3703C37.4333 20.0758 36.5769 20.6958 35.4489 21.2089C34.3209 21.7221 33.0048 21.9786 31.4591 21.9786C29.0568 22 27.135 21.3372 25.7563 19.9903ZM33.8404 12.1011V12.0369C33.8404 11.0535 33.6315 10.3052 33.2137 9.77066C32.796 9.23616 32.2111 8.95822 31.4591 8.95822C30.707 8.95822 30.1221 9.23616 29.7044 9.77066C29.2866 10.3052 29.0986 11.0748 29.0986 12.0369V12.1011H33.8404Z" fill="white"/>
<path d="M40.88 21.4655C40.7338 21.3158 40.6503 21.1448 40.6503 20.931V6.56365C40.6503 6.34985 40.7338 6.15743 40.88 6.00777C41.0263 5.85811 41.1934 5.79397 41.4023 5.79397H45.0788C45.2877 5.79397 45.4757 5.85811 45.6219 6.00777C45.7681 6.15743 45.8308 6.32847 45.8308 6.56365V7.71816C46.3739 7.05538 47.0632 6.49951 47.8988 6.09329C48.7344 5.68707 49.7162 5.47327 50.8024 5.47327C51.9304 5.47327 52.954 5.72983 53.8313 6.26433C54.7087 6.79882 55.4189 7.5685 55.9202 8.61612C56.4216 9.66374 56.6722 10.9038 56.6722 12.379V20.9096C56.6722 21.1234 56.6096 21.2945 56.4633 21.4441C56.3171 21.5938 56.15 21.6793 55.9202 21.6793H51.9513C51.7424 21.6793 51.5544 21.6152 51.4082 21.4655C51.262 21.3158 51.1784 21.1448 51.1784 20.9096V12.5714C51.1784 11.6521 50.9695 10.9465 50.5308 10.4548C50.0922 9.96306 49.4864 9.72788 48.6717 9.72788C47.8779 9.72788 47.2512 9.98444 46.7917 10.4762C46.3321 10.9679 46.1023 11.6735 46.1023 12.5714V20.9096C46.1023 21.1234 46.0397 21.2945 45.8934 21.4441C45.7472 21.5938 45.5801 21.6793 45.3503 21.6793H41.3814C41.1934 21.7007 41.0263 21.6152 40.88 21.4655Z" fill="white"/>
<path d="M61.1216 15.6074V9.96307H58.7612C58.5523 9.96307 58.3852 9.87755 58.2389 9.72789C58.0927 9.57823 58.0092 9.40719 58.0092 9.19339V6.56365C58.0092 6.34985 58.0927 6.15743 58.2389 6.00777C58.3852 5.85811 58.5523 5.79397 58.7612 5.79397H61.1216V0.769679C61.1216 0.555879 61.2052 0.36346 61.3514 0.2138C61.4976 0.0641399 61.6648 0 61.8736 0H65.5501C65.759 0 65.947 0.0641399 66.0933 0.2138C66.2395 0.36346 66.3021 0.534499 66.3021 0.769679V5.81535H70.0413C70.2502 5.81535 70.4382 5.87949 70.5844 6.02915C70.7306 6.17881 70.8142 6.34985 70.8142 6.58503V9.19339C70.8142 9.40719 70.7306 9.59961 70.5844 9.74927C70.4382 9.89893 70.2502 9.96307 70.0413 9.96307H66.3021V15.1584C66.3021 15.8639 66.4275 16.4198 66.699 16.7833C66.9497 17.1467 67.3675 17.3392 67.9524 17.3392H70.3129C70.5218 17.3392 70.7098 17.4247 70.856 17.5743C71.0022 17.724 71.0649 17.9164 71.0649 18.1302V20.931C71.0649 21.1448 71.0022 21.3158 70.856 21.4655C70.7098 21.6152 70.5426 21.7007 70.3129 21.7007H67.4719C63.2314 21.7007 61.1216 19.6696 61.1216 15.6074Z" fill="white"/>
<path d="M74.5742 20.2041C73.2164 19.0282 72.4853 17.3178 72.3809 15.137C72.36 14.8805 72.36 14.4101 72.36 13.7687C72.36 13.1273 72.36 12.657 72.3809 12.4004C72.5062 10.241 73.2582 8.55201 74.6369 7.33335C76.0156 6.11469 77.9165 5.51605 80.3605 5.51605C82.7837 5.51605 84.6846 6.11469 86.0842 7.33335C87.4628 8.55201 88.2148 10.241 88.3402 12.4004C88.382 12.9349 88.4028 13.3839 88.4028 13.7687C88.4028 14.1536 88.382 14.6239 88.3402 15.137C88.2148 17.3392 87.4837 19.0282 86.1468 20.2255C84.8099 21.4228 82.8672 22.0214 80.3605 22.0214C77.8538 22.0214 75.9111 21.4014 74.5742 20.2041ZM82.1779 17.3819C82.5748 16.8688 82.8046 16.0564 82.8672 14.9874C82.8881 14.7736 82.8881 14.3674 82.8881 13.7687C82.8881 13.1487 82.8881 12.7425 82.8672 12.5501C82.8046 11.4811 82.5748 10.69 82.1779 10.1769C81.781 9.64239 81.1752 9.38583 80.3605 9.38583C79.5459 9.38583 78.9401 9.64239 78.5432 10.1769C78.1463 10.7114 77.9165 11.5024 77.8538 12.5501L77.8329 13.7687L77.8538 14.9874C77.9165 16.0778 78.1463 16.8688 78.5432 17.3819C78.9401 17.8951 79.5459 18.1516 80.3605 18.1516C81.1543 18.1516 81.7601 17.8951 82.1779 17.3819Z" fill="white"/>
<path d="M89.9277 21.4655C89.7814 21.3158 89.6979 21.1448 89.6979 20.931V6.60641C89.6979 6.39262 89.7605 6.2002 89.9068 6.05054C90.053 5.90088 90.2201 5.81536 90.4499 5.81536H94.0846C94.2935 5.81536 94.4815 5.90088 94.6277 6.05054C94.7739 6.2002 94.8575 6.39262 94.8575 6.60641V7.76093C95.4215 7.11953 96.0691 6.64917 96.8211 6.3071C97.5731 5.96502 98.4086 5.79398 99.3069 5.79398H100.644C100.853 5.79398 101.041 5.85812 101.187 6.00778C101.333 6.15744 101.396 6.32848 101.396 6.56366V9.89893C101.396 10.1127 101.333 10.2838 101.187 10.4334C101.041 10.5831 100.874 10.6686 100.644 10.6686H97.6357C96.842 10.6686 96.2362 10.9038 95.7975 11.3314C95.3588 11.7804 95.1499 12.4218 95.1499 13.2342V20.931C95.1499 21.1662 95.0664 21.3372 94.9202 21.4869C94.7739 21.6365 94.5859 21.7007 94.377 21.7007H90.4499C90.241 21.7007 90.0739 21.6152 89.9277 21.4655Z" fill="white"/>
<path d="M104.362 21.38C103.506 20.9524 102.816 20.3965 102.336 19.6482C101.855 18.9213 101.605 18.1088 101.605 17.2323C101.605 15.8426 102.169 14.7308 103.297 13.8542C104.425 12.999 105.971 12.4004 107.934 12.0583L111.632 11.481V11.1176C111.632 10.3693 111.485 9.81341 111.193 9.47133C110.9 9.12925 110.378 8.95821 109.668 8.95821C109.271 8.95821 108.937 9.02235 108.665 9.17201C108.394 9.32167 108.101 9.53547 107.746 9.81341C107.495 10.0486 107.266 10.1982 107.057 10.3051C106.973 10.4548 106.869 10.5189 106.764 10.5189H103.297C103.088 10.5189 102.942 10.4548 102.795 10.3265C102.67 10.1982 102.607 10.0272 102.628 9.85617C102.649 9.30029 102.921 8.68027 103.443 8.01749C103.965 7.33333 104.738 6.75607 105.803 6.26433C106.848 5.77259 108.164 5.53741 109.71 5.53741C112.175 5.53741 114.013 6.09329 115.204 7.20505C116.394 8.31681 117 9.81341 117 11.7162V20.9738C117 21.1876 116.937 21.3586 116.791 21.5083C116.645 21.6579 116.478 21.7434 116.248 21.7434H112.592C112.384 21.7434 112.216 21.6579 112.07 21.5083C111.924 21.3586 111.84 21.1876 111.84 20.9738V19.9048C111.402 20.5462 110.796 21.0593 110.023 21.4441C109.25 21.8503 108.331 22.0428 107.245 22.0428C106.179 22 105.219 21.7862 104.362 21.38ZM110.859 17.5102C111.402 16.9116 111.673 16.0564 111.673 14.9446V14.5811L109.187 15.0087C107.516 15.3294 106.681 15.9495 106.681 16.8474C106.681 17.3178 106.869 17.7026 107.266 17.9806C107.663 18.2585 108.143 18.4082 108.707 18.4082C109.605 18.3868 110.316 18.1088 110.859 17.5102Z" fill="white"/>
<path d="M4.59561 0.299316H0.689341C0.313337 0.299316 0 0.620016 0 1.00486V20.9951C0 21.38 0.313337 21.7007 0.689341 21.7007H4.59561C4.97161 21.7007 5.28495 21.38 5.28495 20.9951V1.00486C5.28495 0.620016 4.9925 0.299316 4.59561 0.299316Z" fill="white"/>
<path d="M21.5785 0.299316H17.6723C17.2962 0.299316 16.9829 0.620016 16.9829 1.00486V20.9951C16.9829 21.38 17.2962 21.7007 17.6723 21.7007H21.5785C21.9545 21.7007 22.2679 21.38 22.2679 20.9951V1.00486C22.2679 0.620016 21.9754 0.299316 21.5785 0.299316Z" fill="white"/>
<path d="M10.9877 10.2838L6.6428 2.26629C6.55925 2.11663 6.32947 2.18077 6.32947 2.35181V9.77067C6.32947 10.3693 6.47569 10.9679 6.76814 11.5024L8.54371 14.795L9.1495 15.9067C9.40017 16.3557 9.83884 16.6336 10.3402 16.6336H14.1629C14.2882 16.6336 14.3718 16.5054 14.3091 16.3771L13.4527 14.795L10.9877 10.2838Z" fill="white"/>
<path d="M11.865 10.2838L13.8077 13.8542C13.8912 14.0039 14.121 14.0039 14.2046 13.8542L15.9593 10.6045C15.9802 10.5617 15.9802 10.5403 15.9802 10.4976V2.45868C15.9802 2.2235 15.6668 2.13798 15.5624 2.35178L11.6352 9.59959C11.5934 9.66373 11.5934 9.74925 11.6352 9.83477L11.865 10.2838Z" fill="white"/>
</g>
<defs>
<clipPath id="clip0">
<rect width="117" height="22" fill="white"/>
</clipPath>
</defs>
</svg>
