<svg width="38" height="38" viewBox="0 0 38 38" fill="none" xmlns="http://www.w3.org/2000/svg">
<path d="M31.9864 29.3788C30.3002 26.6618 26.5881 23.75 18.9999 23.75C11.4118 23.75 7.70205 26.6594 6.01343 29.3788C7.56925 31.3292 9.54485 32.9037 11.7933 33.9851C14.0417 35.0666 16.505 35.6271 18.9999 35.625C21.4949 35.6271 23.9582 35.0666 26.2066 33.9851C28.455 32.9037 30.4306 31.3292 31.9864 29.3788Z" fill="#FF4A08"/>
<path fill-rule="evenodd" clip-rule="evenodd" d="M19 21.375C20.8897 21.375 22.7019 20.6243 24.0381 19.2881C25.3743 17.9519 26.125 16.1397 26.125 14.25C26.125 12.3603 25.3743 10.5481 24.0381 9.21186C22.7019 7.87567 20.8897 7.125 19 7.125C17.1103 7.125 15.2981 7.87567 13.9619 9.21186C12.6257 10.5481 11.875 12.3603 11.875 14.25C11.875 16.1397 12.6257 17.9519 13.9619 19.2881C15.2981 20.6243 17.1103 21.375 19 21.375Z" fill="#FF4A08"/>
<path fill-rule="evenodd" clip-rule="evenodd" d="M19 2.375C14.5908 2.375 10.3621 4.12656 7.24435 7.24435C4.12656 10.3621 2.375 14.5908 2.375 19C2.375 23.4092 4.12656 27.6379 7.24435 30.7556C10.3621 33.8734 14.5908 35.625 19 35.625C23.4092 35.625 27.6379 33.8734 30.7556 30.7556C33.8734 27.6379 35.625 23.4092 35.625 19C35.625 14.5908 33.8734 10.3621 30.7556 7.24435C27.6379 4.12656 23.4092 2.375 19 2.375ZM0 19C0 13.9609 2.00178 9.12816 5.56497 5.56497C9.12816 2.00178 13.9609 0 19 0C24.0391 0 28.8718 2.00178 32.435 5.56497C35.9982 9.12816 38 13.9609 38 19C38 24.0391 35.9982 28.8718 32.435 32.435C28.8718 35.9982 24.0391 38 19 38C13.9609 38 9.12816 35.9982 5.56497 32.435C2.00178 28.8718 0 24.0391 0 19Z" fill="#FF4A08"/>
</svg>
